<?xml version="1.0" encoding="UTF-8" standalone="no"?>
<svg
   xmlns:dc="http://purl.org/dc/elements/1.1/"
   xmlns:cc="http://creativecommons.org/ns#"
   xmlns:rdf="http://www.w3.org/1999/02/22-rdf-syntax-ns#"
   xmlns:svg="http://www.w3.org/2000/svg"
   xmlns="http://www.w3.org/2000/svg"
   xmlns:sodipodi="http://sodipodi.sourceforge.net/DTD/sodipodi-0.dtd"
   xmlns:inkscape="http://www.inkscape.org/namespaces/inkscape"
   version="1.1"
   x="0px"
   y="0px"
   viewBox="0 0 100 100"
   enable-background="new 0 0 100 100"
   xml:space="preserve"
   id="svg84"
   sodipodi:docname="bullseye-yellow.svg"
   inkscape:version="0.92.1 r15371"><metadata
     id="metadata90"><rdf:RDF><cc:Work
         rdf:about=""><dc:format>image/svg+xml</dc:format><dc:type
           rdf:resource="http://purl.org/dc/dcmitype/StillImage" /><dc:title></dc:title></cc:Work></rdf:RDF></metadata><defs
     id="defs88" /><sodipodi:namedview
     pagecolor="#ffffff"
     bordercolor="#666666"
     borderopacity="1"
     objecttolerance="10"
     gridtolerance="10"
     guidetolerance="10"
     inkscape:pageopacity="0"
     inkscape:pageshadow="2"
     inkscape:window-width="1276"
     inkscape:window-height="985"
     id="namedview86"
     showgrid="false"
     inkscape:zoom="8.03"
     inkscape:cx="50"
     inkscape:cy="50"
     inkscape:window-x="1280"
     inkscape:window-y="18"
     inkscape:window-maximized="0"
     inkscape:current-layer="svg84" /><g
     id="g82"><circle
       cx="50"
       cy="50"
       r="10.563"
       id="circle78" /><circle
       fill="none"
       stroke="#000000"
       stroke-width="11.6445"
       stroke-miterlimit="10"
       cx="50"
       cy="50"
       r="28.781"
       id="circle80" /></g><path
     style="fill:#ff0000;stroke-width:0.124533"
     d="M 47.932752,84.486709 C 41.647364,84.036519 35.836062,82.064681 30.77621,78.665306 19.523919,71.105646 13.745474,57.753239 15.930401,44.360697 c 1.424411,-8.73095 6.224623,-16.615622 13.384667,-21.985218 4.69458,-3.520648 9.780656,-5.639849 15.753425,-6.563936 2.368023,-0.366372 7.229351,-0.401765 9.446541,-0.06877 3.97084,0.596363 6.96512,1.489745 10.318888,3.078773 9.781138,4.63434 16.953244,13.826453 19.01565,24.371368 0.532438,2.722315 0.631308,3.8113 0.624804,6.88181 -0.0064,3.034742 -0.156301,4.5696 -0.693124,7.098381 -2.752846,12.967646 -12.765836,23.259665 -25.674015,26.389464 -3.28633,0.796825 -7.106983,1.143853 -10.174485,0.924144 z m 5.068341,-11.688911 c 9.711146,-1.262058 17.490338,-8.494849 19.541545,-18.168969 0.43668,-2.059516 0.549306,-5.684084 0.242118,-7.791967 -1.372595,-9.418588 -8.053275,-16.844567 -17.250519,-19.174992 -1.981012,-0.501954 -3.647765,-0.659564 -6.231622,-0.589267 -1.947939,0.05299 -2.725769,0.129119 -3.931444,0.384759 -5.93675,1.258771 -11.112061,4.724298 -14.434799,9.665926 -1.865285,2.774083 -2.991818,5.565252 -3.628379,8.989905 -0.302994,1.630083 -0.361733,4.975456 -0.119851,6.825786 1.653426,12.648209 13.162857,21.502822 25.812951,19.858819 z"
     id="path92"
     inkscape:connector-curvature="0" /><path
     style="fill:#ffff00;stroke-width:0.124533"
     d="m 48.493151,60.408344 c -3.837948,-0.582902 -7.244832,-3.433812 -8.442129,-7.06445 -2.066488,-6.266334 1.977463,-12.783095 8.526755,-13.740728 2.024659,-0.296045 4.014655,0.03778 6.017491,1.009436 2.209052,1.071702 3.729769,2.591836 4.793971,4.79213 0.331275,0.684932 0.693853,1.624222 0.805726,2.087312 1.354938,5.608638 -2.041965,11.250331 -7.635225,12.680846 -1.110068,0.283908 -3.019601,0.394469 -4.066589,0.235454 z"
     id="path94"
     inkscape:connector-curvature="0" /><path
     style="fill:#ffff00;stroke-width:0.124533"
     d="M 48.057285,84.613677 C 40.889362,84.131432 34.582872,81.791776 28.879203,77.498768 26.933854,76.034552 23.881293,72.962747 22.388085,70.966727 19.606071,67.247918 17.559517,63.04313 16.478382,58.824829 c -2.075877,-8.099516 -1.299723,-16.32045 2.24288,-23.756336 1.751163,-3.675674 3.766509,-6.50503 6.791186,-9.534189 2.802459,-2.806611 5.33972,-4.676772 8.597141,-6.336771 13.001472,-6.625619 28.614483,-4.562103 39.239177,5.186102 6.21475,5.70206 9.918123,12.904486 11.096865,21.581496 0.269347,1.98272 0.196238,6.796461 -0.136174,8.966376 -1.183939,7.728472 -4.371076,14.078325 -9.784741,19.494513 -3.172319,3.173797 -5.912194,5.119892 -9.789042,6.953019 -5.047105,2.386469 -11.28974,3.597178 -16.678389,3.234638 z m 5.839518,-12.045925 c 4.644543,-0.87191 8.554124,-2.870916 11.936796,-6.103401 3.393922,-3.243235 5.665885,-7.397457 6.647908,-12.155509 0.261005,-1.264613 0.295579,-1.767163 0.295579,-4.296389 0,-2.499052 -0.03666,-3.045274 -0.287533,-4.283929 -0.589712,-2.911657 -1.754744,-5.803854 -3.265692,-8.107104 -0.97408,-1.484861 -1.508063,-2.145896 -2.850531,-3.528771 -3.549199,-3.656028 -7.791186,-5.871791 -12.824184,-6.698598 -1.352356,-0.222162 -1.921673,-0.248802 -4.121998,-0.192885 -3.87899,0.09858 -6.331016,0.706677 -9.706119,2.407102 -2.158762,1.087615 -3.716375,2.176609 -5.39315,3.770585 -4.657106,4.427138 -7.192138,10.275655 -7.192138,16.592822 0,11.398677 8.302253,20.977562 19.676214,22.701812 1.53614,0.232873 5.604567,0.172156 7.084848,-0.105735 z"
     id="path115"
     inkscape:connector-curvature="0" /></svg>